<?xml version="1.0" encoding="UTF-8"?>
<svg width="140px" height="19px" viewBox="0 0 140 19" version="1.1" xmlns="http://www.w3.org/2000/svg" xmlns:xlink="http://www.w3.org/1999/xlink">
    <!-- Generator: Sketch 43.2 (39069) - http://www.bohemiancoding.com/sketch -->
    <title>text-to-learn</title>
    <desc>Created with Sketch.</desc>
    <defs>
        <linearGradient x1="100%" y1="70.686847%" x2="2.94269078%" y2="70.6868481%" id="linearGradient-1">
            <stop stop-color="#0887F9" offset="0%"></stop>
            <stop stop-color="#FFFFFF" offset="100%"></stop>
        </linearGradient>
    </defs>
    <g id="Page-1" stroke="none" stroke-width="1" fill="none" fill-rule="evenodd">
        <g id="01-Text-Input" transform="translate(-40.000000, -38.000000)" fill="url(#linearGradient-1)">
            <path d="M45.564,56.312 C46.812,56.312 47.618,55.948 48.112,55.506 L47.462,53.426 C47.254,53.66 46.786,53.894 46.266,53.894 C45.486,53.894 45.07,53.244 45.07,52.386 L45.07,45.808 L47.618,45.808 L47.618,43.442 L45.07,43.442 L45.07,40.01 L42.34,40.01 L42.34,43.442 L40.26,43.442 L40.26,45.808 L42.34,45.808 L42.34,53.062 C42.34,55.168 43.432,56.312 45.564,56.312 Z M55.886,56.312 C52.09,56.312 49.308,53.686 49.308,49.708 C49.308,46.068 51.96,43.13 55.678,43.13 C59.448,43.13 61.84,45.99 61.84,49.942 L61.84,50.618 L52.168,50.618 C52.376,52.49 53.78,54.076 56.146,54.076 C57.394,54.076 58.824,53.582 59.734,52.672 L60.982,54.466 C59.708,55.662 57.862,56.312 55.886,56.312 Z M59.214,48.668 C59.136,47.186 58.122,45.366 55.652,45.366 C53.338,45.366 52.246,47.16 52.142,48.668 L59.214,48.668 Z M75.568,56 L70.94,49.552 L75.282,43.442 L72.214,43.442 L69.224,47.68 L66.26,43.442 L63.192,43.442 L67.534,49.552 L62.906,56 L65.974,56 L69.25,51.372 L72.5,56 L75.568,56 Z M81.262,56.312 C82.51,56.312 83.316,55.948 83.81,55.506 L83.16,53.426 C82.952,53.66 82.484,53.894 81.964,53.894 C81.184,53.894 80.768,53.244 80.768,52.386 L80.768,45.808 L83.316,45.808 L83.316,43.442 L80.768,43.442 L80.768,40.01 L78.038,40.01 L78.038,43.442 L75.958,43.442 L75.958,45.808 L78.038,45.808 L78.038,53.062 C78.038,55.168 79.13,56.312 81.262,56.312 Z M91.012,50.878 L91.012,48.538 L84.772,48.538 L84.772,50.878 L91.012,50.878 Z M97.356,56.312 C98.604,56.312 99.41,55.948 99.904,55.506 L99.254,53.426 C99.046,53.66 98.578,53.894 98.058,53.894 C97.278,53.894 96.862,53.244 96.862,52.386 L96.862,45.808 L99.41,45.808 L99.41,43.442 L96.862,43.442 L96.862,40.01 L94.132,40.01 L94.132,43.442 L92.052,43.442 L92.052,45.808 L94.132,45.808 L94.132,53.062 C94.132,55.168 95.224,56.312 97.356,56.312 Z M107.548,56.312 C103.544,56.312 101.1,53.296 101.1,49.708 C101.1,46.094 103.544,43.13 107.548,43.13 C111.552,43.13 113.996,46.094 113.996,49.708 C113.996,53.296 111.552,56.312 107.548,56.312 Z M107.548,53.894 C109.888,53.894 111.162,51.944 111.162,49.708 C111.162,47.498 109.888,45.548 107.548,45.548 C105.234,45.548 103.934,47.498 103.934,49.708 C103.934,51.944 105.234,53.894 107.548,53.894 Z M122.03,50.878 L122.03,48.538 L115.79,48.538 L115.79,50.878 L122.03,50.878 Z M127.308,56 L127.308,38.658 L124.578,38.658 L124.578,56 L127.308,56 Z M136.668,56.312 C132.872,56.312 130.09,53.686 130.09,49.708 C130.09,46.068 132.742,43.13 136.46,43.13 C140.23,43.13 142.622,45.99 142.622,49.942 L142.622,50.618 L132.95,50.618 C133.158,52.49 134.562,54.076 136.928,54.076 C138.176,54.076 139.606,53.582 140.516,52.672 L141.764,54.466 C140.49,55.662 138.644,56.312 136.668,56.312 Z M139.996,48.668 C139.918,47.186 138.904,45.366 136.434,45.366 C134.12,45.366 133.028,47.16 132.924,48.668 L139.996,48.668 Z M155.752,56 L153.022,56 L153.022,54.622 C152.086,55.714 150.604,56.312 148.94,56.312 C146.912,56.312 144.598,54.908 144.598,52.152 C144.598,49.24 146.886,48.044 148.94,48.044 C150.656,48.044 152.086,48.59 153.022,49.656 L153.022,47.784 C153.022,46.328 151.8,45.444 150.084,45.444 C148.68,45.444 147.432,45.964 146.366,47.056 L145.222,45.158 C146.678,43.754 148.498,43.13 150.5,43.13 C153.308,43.13 155.752,44.3 155.752,47.654 L155.752,56 Z M150.032,54.44 C151.202,54.44 152.372,53.998 153.022,53.14 L153.022,51.216 C152.372,50.358 151.202,49.916 150.032,49.916 C148.498,49.916 147.328,50.826 147.328,52.178 C147.328,53.556 148.498,54.44 150.032,54.44 Z M162.018,56 L162.018,47.446 C162.564,46.536 164.098,45.756 165.268,45.756 C165.606,45.756 165.866,45.782 166.1,45.834 L166.1,43.13 C164.488,43.13 162.98,44.066 162.018,45.262 L162.018,43.442 L159.288,43.442 L159.288,56 L162.018,56 Z M179.542,56 L179.542,47.16 C179.542,44.586 178.19,43.13 175.486,43.13 C173.51,43.13 171.872,44.144 171.04,45.132 L171.04,43.442 L168.31,43.442 L168.31,56 L171.04,56 L171.04,47.212 C171.69,46.38 172.886,45.548 174.264,45.548 C175.798,45.548 176.812,46.172 176.812,48.148 L176.812,56 L179.542,56 Z" id="text-to-learn"></path>
        </g>
    </g>
</svg>