<?xml version="1.0" encoding="UTF-8"?>
<svg width="1440px" height="769px" viewBox="0 0 1440 769" version="1.1" xmlns="http://www.w3.org/2000/svg" xmlns:xlink="http://www.w3.org/1999/xlink">
  <!-- Generator: Sketch 43.1 (39012) - http://www.bohemiancoding.com/sketch -->
  <desc>Created with Sketch.</desc>
  <defs>
    <linearGradient x1="50%" y1="0%" x2="50%" y2="75.6393134%" id="linearGradient-1">
      <stop stop-color="#3024AE" offset="0%"></stop>
      <stop stop-color="#241A85" offset="100%"></stop>
    </linearGradient>
    <linearGradient x1="50%" y1="0%" x2="50%" y2="75.6393134%" id="linearGradient-2">
      <stop stop-color="#3024AE" offset="0%"></stop>
      <stop stop-color="#000000" offset="100%"></stop>
    </linearGradient>
  </defs>
  <g id="Page-1" stroke="none" stroke-width="1" fill="none" fill-rule="evenodd">
    <g id="03-Level-1" transform="translate(0.000000, -703.000000)">
      <g id="footer" transform="translate(-216.000000, 703.000000)">
        <path d="M1710.90397,360.08361 L1346.22179,341.336212 L185.310445,284.984224 L171.540394,58.3019879 C171.540394,58.3019879 128.928454,136.748987 171.540394,126.47775 C214.152334,116.206512 299.157367,27.1051497 442.395914,32.501219 C585.634461,37.8972882 633.653203,157.799799 732.395238,163.850132 C831.137274,169.900464 830.020432,58.3019879 896.814672,58.3019879 C963.608912,58.3019879 995.516699,126.47775 1069.45076,126.47775 C1143.38482,126.47775 1146.77712,-1.13686838e-13 1221.45662,1.13686838e-13 C1296.13612,3.41060513e-13 1324.50484,92.8054335 1405.75539,92.8054335 C1487.00594,92.8054335 1498.85553,17.6601136 1575.90144,17.6601136 C1652.94736,17.6601136 1727.83752,131.530886 1727.83752,198.503077 C1727.83752,265.475269 1710.90397,360.08361 1710.90397,360.08361 Z" id="Path-2" fill="url(#linearGradient-1)" opacity="0.57104846"></path>
        <path d="M1548.90397,389.08361 L1184.22179,370.336212 L23.3104449,313.984224 L9.54039418,87.3019879 C9.54039418,87.3019879 -19.3014951,219.012242 23.3104449,208.741004 C65.9223849,198.469766 175.464647,87.3019879 318.703194,92.6980572 C461.941741,98.0941264 464.869467,192.850132 570.395238,192.850132 C675.921009,192.850132 657.685821,118.254629 728.641202,118.254629 C799.596584,118.254629 833.516699,155.47775 907.450761,155.47775 C981.384824,155.47775 1005.51549,74.9586 1056.93943,74.9586 C1108.36336,74.9586 1161.18364,118.254629 1242.43419,118.254629 C1323.68474,118.254629 1374.09722,29.8183426 1422.78753,29.8183426 C1472.4015,29.8183426 1520.13117,102.951233 1596.40457,102.951233 C1644.59979,102.951233 1708.99005,10.1467478 1732.31425,29.8183426 C1755.79284,49.6201415 1695.73944,176.151296 1695.73944,192.850132 C1695.73944,259.822323 1548.90397,389.08361 1548.90397,389.08361 Z" id="Path-2-Copy" fill="url(#linearGradient-1)" opacity="0.370000005"></path>
        <path d="M1656,769 L1245.57235,769 L216,769 L97.5403942,181.301988 C97.5403942,181.301988 68.6985049,313.012242 111.310445,302.741004 C153.922385,292.469766 250.967722,144.18869 394.206269,149.584759 C537.444816,154.980829 559.653203,280.799799 658.395238,286.850132 C757.137274,292.900464 745.8145,190.237044 812.938919,181.301988 C880.063338,172.366931 921.516699,249.47775 995.450761,249.47775 C1069.38482,249.47775 1072.77712,123 1147.45662,123 C1222.13612,123 1244.1218,181.301988 1325.37236,181.301988 C1406.62291,181.301988 1414.98669,123 1467.73138,123 C1520.47608,123 1784,219.87794 1784,286.850132 C1784,353.822323 1656,769 1656,769 Z" id="Path-2-Copy-2" fill="url(#linearGradient-2)"></path>
      </g>
    </g>
  </g>
</svg>
