<svg width="1920px" height="656px" viewBox="0 0 1920 656" version="1.1" xmlns="http://www.w3.org/2000/svg" xmlns:xlink="http://www.w3.org/1999/xlink">
  <!-- Generator: Sketch 43.1 (39012) - http://www.bohemiancoding.com/sketch -->
  <desc>Created with Sketch.</desc>
  <defs>
    <linearGradient x1="50%" y1="0%" x2="50%" y2="75.6393134%" id="linearGradient-1">
      <stop stop-color="#3024AE" offset="0%"></stop>
      <stop stop-color="#000000" offset="100%"></stop>
    </linearGradient>
  </defs>
  <g id="Page-1" stroke="none" stroke-width="1" fill="none" fill-rule="evenodd">
    <g id="Finish-1920" transform="translate(0.000000, -816.000000)" fill="url(#linearGradient-1)">
      <g id="footer" transform="translate(-216.000000, 704.000000)">
        <path d="M2136,768 L1245.57235,768 L216,768 L97.5403942,180.301988 C97.5403942,180.301988 68.6985049,312.012242 111.310445,301.741004 C153.922385,291.469766 250.967722,143.18869 394.206269,148.584759 C537.444816,153.980829 559.653203,279.799799 658.395238,285.850132 C757.137274,291.900464 745.8145,189.237044 812.938919,180.301988 C880.063338,171.366931 921.516699,248.47775 995.450761,248.47775 C1069.38482,248.47775 1080.30355,122.185806 1154.98304,122.185806 C1229.66254,122.185806 1223.54335,209.255654 1328.25071,209.255654 C1432.95807,209.255654 1451.97408,139.694921 1504.71877,139.694921 C1562.68554,139.694921 1607.99007,232.053485 1694.57761,232.053485 C1785.27063,232.053485 1810.28397,112.330339 1929.38458,112.330339 C2045.62203,112.330339 2136,221.645692 2136,238.466671 L2136,768 Z" id="Path-2-Copy-2"></path>
      </g>
    </g>
  </g>
</svg>
