<svg width="1920px" height="656px" viewBox="0 0 1920 656" version="1.1" xmlns="http://www.w3.org/2000/svg" xmlns:xlink="http://www.w3.org/1999/xlink">
  <defs>
    <linearGradient x1="50%" y1="0%" x2="50%" y2="75.6393134%" id="linearGradient-1">
      <stop stop-color="#3024AE" offset="0%"></stop>
      <stop stop-color="#000000" offset="100%"></stop>
    </linearGradient>
  </defs>
  <g id="Page-1" stroke="none" stroke-width="1" fill="none" fill-rule="evenodd">
    <g id="Finish-1920" transform="translate(0.000000, -816.000000)" fill="url(#linearGradient-1)">
      <g id="footer" transform="translate(-216.000000, 704.000000)">
        <path d="M2137,768 L1246.57235,768 L217,768 L98.5403942,180.301988 L67,323.5 C67,323.5 251.967722,143.18869 395.206269,148.584759 C538.444816,153.980829 560.653203,279.799799 659.395238,285.850132 C758.137274,291.900464 746.8145,189.237044 813.938919,180.301988 C881.063338,171.366931 922.516699,248.47775 996.450761,248.47775 C1070.38482,248.47775 1081.30355,122.185806 1155.98304,122.185806 C1230.66254,122.185806 1224.54335,209.255654 1329.25071,209.255654 C1433.95807,209.255654 1452.97408,139.694921 1505.71877,139.694921 C1563.68554,139.694921 1608.99007,232.053485 1695.57761,232.053485 C1786.27063,232.053485 1811.28397,112.330339 1930.38458,112.330339 C2046.62203,112.330339 2137,192.434675 2137,209.255654 L2137,768 Z" id="Path-2-Copy-2"></path>
      </g>
    </g>
  </g>
</svg>
