<svg width="1920px" height="368px" viewBox="0 0 1920 368" version="1.1" xmlns="http://www.w3.org/2000/svg" xmlns:xlink="http://www.w3.org/1999/xlink">
  <!-- Generator: Sketch 43.1 (39012) - http://www.bohemiancoding.com/sketch -->
  <desc>Created with Sketch.</desc>
  <defs>
    <linearGradient x1="50%" y1="0%" x2="50%" y2="75.6393134%" id="linearGradient-1">
      <stop stop-color="#3024AE" offset="0%"></stop>
      <stop stop-color="#241A85" offset="100%"></stop>
    </linearGradient>
  </defs>
  <g id="Page-1" stroke="none" stroke-width="1" fill="none" fill-rule="evenodd" opacity="0.370000005">
    <g id="Finish-1920" transform="translate(0.000000, -732.000000)" fill="url(#linearGradient-1)">
      <g id="footer" transform="translate(-216.000000, 704.000000)">
        <path d="M2136,395.633149 L1184.22179,369.336212 L23.3104449,312.984224 L9.54039418,86.3019879 C9.54039418,86.3019879 -19.3014951,218.012242 23.3104449,207.741004 C65.9223849,197.469766 175.464647,86.3019879 318.703194,91.6980572 C461.941741,97.0941264 464.869467,191.850132 570.395238,191.850132 C675.921009,191.850132 696.768955,86.3019879 751.194205,86.3019879 C805.619456,86.3019879 833.516699,154.47775 907.450761,154.47775 C981.384824,154.47775 1025.62626,74.6637244 1077.0502,74.6637244 C1128.47413,74.6637244 1161.18364,117.254629 1242.43419,117.254629 C1323.68474,117.254629 1374.09722,28.8183426 1422.78753,28.8183426 C1472.4015,28.8183426 1519.6317,117.254629 1595.9051,117.254629 C1644.10032,117.254629 1672.80751,60.3487982 1747.96708,60.3487982 C1823.12664,60.3487982 1838.43156,136.891478 1892.28858,136.891478 C1955.84473,136.891478 1969.04834,60.3487982 2029.4092,60.3487982 C2156.93484,60.3487982 2194.5,213.395392 2194.5,221.850132 C2194.5,288.822323 2136,395.633149 2136,395.633149 Z" id="Path-2-Copy"></path>
      </g>
    </g>
  </g>
</svg>
