<svg width="1920px" height="341px" viewBox="0 0 1920 341" version="1.1" xmlns="http://www.w3.org/2000/svg" xmlns:xlink="http://www.w3.org/1999/xlink">
  <!-- Generator: Sketch 43.1 (39012) - http://www.bohemiancoding.com/sketch -->
  <desc>Created with Sketch.</desc>
  <defs>
    <linearGradient x1="50%" y1="0%" x2="50%" y2="75.6393134%" id="linearGradient-1">
      <stop stop-color="#3024AE" offset="0%"></stop>
      <stop stop-color="#241A85" offset="100%"></stop>
    </linearGradient>
  </defs>
  <g id="Page-1" stroke="none" stroke-width="1" fill="none" fill-rule="evenodd" opacity="0.57104846">
    <g id="Finish-1920" transform="translate(0.000000, -704.000000)" fill="url(#linearGradient-1)">
      <g id="footer" transform="translate(-216.000000, 704.000000)">
        <path d="M2136,340.336212 L1346.22179,340.336212 L193.383459,340.336212 L171.540394,57.3019879 C171.540394,57.3019879 128.928454,229.17583 171.540394,218.904593 C214.152334,208.633355 299.157367,26.1051497 442.395914,31.501219 C585.634461,36.8972882 633.653203,156.799799 732.395238,162.850132 C831.137274,168.900464 842.701465,57.3019879 909.495705,57.3019879 C976.289945,57.3019879 995.516699,125.47775 1069.45076,125.47775 C1143.38482,125.47775 1160.0032,31.501219 1234.6827,31.501219 C1309.3622,31.501219 1346.22179,114.997331 1406.98281,114.997331 C1467.74382,114.997331 1497.33718,0.564754132 1574.38309,0.564754132 C1662.99047,0.564754132 1690.59156,163.52748 1783.93426,162.850132 C1860.87389,162.291813 1889.52274,32 1992.12752,32 C2096.83488,32 2136,164.543551 2136,180.283163 C2136,196.022775 2136,340.336212 2136,340.336212 Z" id="Path-2"></path>
      </g>
    </g>
  </g>
</svg>
